<mxfile host="app.diagrams.net" modified="2024-02-11T13:58:37.409Z" agent="Mozilla/5.0 (Macintosh; Intel Mac OS X 10_15_7) AppleWebKit/537.36 (KHTML, like Gecko) Chrome/109.0.0.0 Safari/537.36" version="23.1.2" etag="CykUauOxZ45EglQAivvR" type="github">
  <diagram name="Page-1" id="qPiQSmlClpQo4UVKPVyt">
    <mxGraphModel>
      <root>
        <mxCell id="0" />
        <mxCell id="1" parent="0" />
      </root>
    </mxGraphModel>
  </diagram>
</mxfile>
